<svg xmlns="http://www.w3.org/2000/svg" xml:space="preserve" id="business-launch" x="0" y="0" style="enable-background:new 0 0 1080 1080" version="1.1" viewBox="0 0 1080 1080">
  <path d="M290.45 738.28c0-136.78 110.88-247.66 247.66-247.66S785.77 601.5 785.77 738.28" style="opacity:.09;fill:#2a94f4"></path>
  <path d="M653 662c-1.57 0-3.11.09-4.63.26a60.61 60.61 0 0 0-12.31-18.73c.08-1.03.13-2.07.13-3.13 0-23.2-18.8-42-42-42-23.19 0-42 18.8-42 42a60.668 60.668 0 0 0-15.9 22.74 41.825 41.825 0 0 0-17.07 8.51c-.16-.22-.31-.44-.46-.65a41.83 41.83 0 0 0 8.25-25c0-23.2-18.8-42-42-42s-42 18.8-42 42c0 3.74.49 7.36 1.41 10.81-2.59-.5-5.26-.77-7.99-.77-23.2 0-42 18.8-42 42s18.8 42 42 42a41.8 41.8 0 0 0 25.73-8.81 41.76 41.76 0 0 0 22.86 6.77c10.18 0 19.52-3.63 26.79-9.65C519.4 739.03 531.88 746 546 746c7.65 0 14.82-2.06 21-5.63a60.2 60.2 0 0 0 25.5 5.63c12.31 0 23.76-3.69 33.31-10 7.33 6.23 16.82 10 27.19 10 23.2 0 42-18.8 42-42s-18.8-42-42-42z" style="fill:#f2f2f2"></path>
  <path d="M504.14 336.95h71.71v260.22h-71.71z" style="fill:#2a94f4"></path>
  <path d="M540 267.72c-31.56 31.56-35.86 69.23-35.86 69.23h71.72s-4.3-37.67-35.86-69.23z" style="fill:#0b4870"></path>
  <g style="opacity:.54">
    <path d="M557.34 392.01c0 9.58-7.76 17.34-17.34 17.34s-17.34-7.76-17.34-17.34 7.76-17.34 17.34-17.34 17.34 7.76 17.34 17.34z" style="fill:#d3d3d3"></path>
  </g>
  <g style="opacity:.54">
    <circle cx="540" cy="444.06" r="17.34" style="fill:#d3d3d3"></circle>
  </g>
  <path d="M552.92 444.06c0 7.14-5.78 12.92-12.92 12.92s-12.92-5.78-12.92-12.92c0-7.13 5.78-12.92 12.92-12.92s12.92 5.79 12.92 12.92zM552.92 392.01c0 7.13-5.78 12.92-12.92 12.92s-12.92-5.78-12.92-12.92 5.78-12.92 12.92-12.92 12.92 5.78 12.92 12.92z" style="fill:#d3d3d3"></path>
  <path d="M496.33 597.96h15.62v66.31h-15.62zM532.19 597.96h15.62v66.31h-15.62zM568.05 597.96h15.62v66.31h-15.62z" style="fill:#fcd2b1"></path>
  <path d="M552.92 604.83h-25.84c0-7.14 5.78-12.92 12.92-12.92s12.92 5.79 12.92 12.92zM588.78 604.83h-25.84c0-7.14 5.79-12.92 12.92-12.92s12.92 5.79 12.92 12.92zM517.06 604.83h-25.84c0-7.14 5.78-12.92 12.92-12.92s12.92 5.79 12.92 12.92z" style="fill:#0b4870"></path>
  <path d="M619.93 738.64h-26.11V455h26.11v283.64zm-24.33-1.78h22.54V456.79H595.6v280.07z" style="fill:#2a94f4"></path>
  <path d="M593.12 730.21h27.5v2.26h-27.5z" style="fill:#2a94f4" transform="rotate(-27.798 606.873 731.395)"></path>
  <path d="M593.12 686.86h27.5v2.26h-27.5z" style="fill:#2a94f4" transform="rotate(-27.798 606.875 688.045)"></path>
  <path d="M593.12 643.51h27.5v2.26h-27.5z" style="fill:#2a94f4" transform="rotate(-27.798 606.876 644.695)"></path>
  <path d="M593.12 600.16h27.5v2.26h-27.5z" style="fill:#2a94f4" transform="rotate(-27.813 606.915 601.313)"></path>
  <path d="M593.12 556.82h27.5v2.26h-27.5z" style="fill:#2a94f4" transform="rotate(-27.813 606.924 557.968)"></path>
  <path d="M593.12 513.47h27.5v2.26h-27.5z" style="fill:#2a94f4" transform="rotate(-27.81 606.8 514.597)"></path>
  <path d="M593.12 470.12h27.5v2.26h-27.5z" style="fill:#2a94f4" transform="rotate(-27.81 606.803 471.253)"></path>
  <path d="M480.2 738.64h-26.11V455h26.11v283.64zm-24.33-1.78h22.54V456.79h-22.54v280.07z" style="fill:#2a94f4"></path>
  <path d="M453.4 730.21h27.5v2.26h-27.5z" style="fill:#2a94f4" transform="rotate(-27.798 467.138 731.39)"></path>
  <path d="M453.4 686.86h27.5v2.26h-27.5z" style="fill:#2a94f4" transform="rotate(-27.798 467.14 688.04)"></path>
  <path d="M453.4 643.51h27.5v2.26h-27.5z" style="fill:#2a94f4" transform="rotate(-27.798 467.142 644.69)"></path>
  <path d="M453.4 600.16h27.5v2.26h-27.5z" style="fill:#2a94f4" transform="rotate(-27.813 467.18 601.315)"></path>
  <path d="M453.4 556.82h27.5v2.26h-27.5z" style="fill:#2a94f4" transform="rotate(-27.813 467.187 557.971)"></path>
  <path d="M453.4 513.47h27.5v2.26h-27.5z" style="fill:#2a94f4" transform="rotate(-27.81 467.082 514.59)"></path>
  <path d="M453.4 470.12h27.5v2.26h-27.5z" style="fill:#2a94f4" transform="rotate(-27.81 467.085 471.245)"></path>
  <path d="M794.5 793h-529c-15.19 0-27.5-12.31-27.5-27.5s12.31-27.5 27.5-27.5h529c15.19 0 27.5 12.31 27.5 27.5S809.69 793 794.5 793z" style="fill:#f2f2f2"></path>
  <path d="M376.61 551.4h-.02c.08.03.09.04.02 0z" style="fill:#0b4870"></path>
  <path d="m327.85 725.32.02 6.07c0 1.24-.16 2.47-.5 3.66l-.53 1.87c-.43 1.54.72 3.06 2.32 3.06 4.14-.01 11.21 0 13.03 0 .3 0 .59-.2.62-.5.15-1.77-4.97-2.96-8.83-4.45-2.94-1.14-2.78-6.42-2.42-9.51.14-1.17-.84-2.16-2-2.06-.97.08-1.71.89-1.71 1.86zM299.42 723.62l-2.09 6.95c-.09.31-.23.6-.41.86l-1.48 2.2a2.51 2.51 0 0 0 1.35 3.8s2.99 1.05 6.08 2.07c3.16 1.04 7.13.17 7.13-.66 0-1.85-1.73-.38-4.62-2.32-.97-.65-1.97-1.33-2.86-2.03-2.49-1.95-.32-6.9 1.21-9.68.55-1-.03-2.24-1.15-2.48l-.72-.15c-1.08-.22-2.13.4-2.44 1.44z" style="fill:#fcd2b1"></path>
  <path d="m320.8 642.33 22.93-1.92s2.31 16.69-3.49 46.9c-2.72 14.17-8.38 41.24-8.38 41.24-1.4.61-2.83.77-4.28.41 0 0-.43-11.94-.69-24.8-.25-12.33-.32-25.51-1.11-29.83-1.61-8.81-4.98-32-4.98-32z" style="fill:#0b4870"></path>
  <path d="M325.53 642.62c2.37 12.71 7.66 31.71-2.53 49.55-10.19 17.85-20.89 36.4-20.89 36.4-1.38.06-2.63-.44-3.79-1.33 0 0 1.79-8.09 4.37-17.54 2.95-10.81 6.7-23.52 5.63-30.15-2-12.42-4.29-28.97-3.6-37 .7-8.02 19.57-6.61 20.81.07zM342.74 597.67l18.07 9.93 18.15-28.56-21.95-7.62z" style="fill:#0b4870"></path>
  <path d="m343.89 596.81 16.9 9.29 16.97-26.71-20.53-7.13z" style="fill:#d3d3d3"></path>
  <path d="M337.7 591.81s3.15-1.5 4.53-2.29c1.38-.79 4.93-1.87 5.22-2.12.29-.26 10.53-.89 11.15-1.42.62-.54 1.22 1.26-1.43 1.84-2.65.58-6.35 2-6.55 3.04-.2 1.04 2.73 1.28 3.02 2.14.3.85-.08.66-.5.85-.42.18-3.48-1.51-4.83-1.03s-3.41-.19-4.44.17c-1.03.35-6.05 2.04-6.05 2.04l-.12-3.22z" style="fill:#fcd2b1"></path>
  <path d="m343.38 594.03 1.62-.6s-2.02-4.74-2.9-4.63c-1.02.13-2.28.47-2.28.47l3.56 4.76z" style="fill:#d3d3d3"></path>
  <path d="M343.75 594.85c-.21-.15-3.44-6.36-3.44-6.36l-6.92.94 3.74 7.36 6.62-1.94zM361.7 604.02s2.64-2.38 3.92-3.37c1.28-.99 3.68-3.92 4.03-4.09.35-.17 4.94-9.58 5.68-9.95.75-.38-.71-1.64-2.29.63-1.58 2.28-4.36 5.2-5.42 4.99-1.06-.21-.15-3.07-.84-3.68-.69-.61-.66-.18-.99.14-.34.33.07 3.87-.91 4.95s-1.15 3.28-1.89 4.12c-.73.84-4.28 4.91-4.28 4.91l2.99 1.35zM319.57 545.33s7.93-2.96 11.59 3.08 3.3 18.12-.69 19.6c-4 1.49-10 .71-12.05-3.07-2.05-3.78-3.89-9.24-3.8-12.88.08-3.66 2.86-5.68 4.95-6.73z" style="fill:#fcd2b1"></path>
  <path d="M329.6 568.28s-.64 5.69-.09 6.75c.55 1.05-9.9 0-9.9 0s-.94-8.21-2.61-13.05c-1.67-4.85 12.6 6.3 12.6 6.3z" style="fill:#fcd2b1"></path>
  <path d="M317 561.98s.38 6.11 3.43 5.63c3.05-.48 7.13-9.41 8.4-9.85 1.27-.45 1.28-1.19 1.28-1.19l.8 1.16 1.35.09s-1.23-3.63.63-5.11c1.86-1.48-1.93-11.74-11.7-8.32 0 0-7.51 2.07-7.23 6.34.26 4.26 1.36 9.12 3.04 11.25z" style="fill:#0b4870"></path>
  <path d="M330.74 576.3s-.03-2.01-.95-2.21c-.91-.19-10.08-1.07-11.2-.63v2.35s2.16 1.32 12.15.49z" style="fill:#d3d3d3"></path>
  <path d="M329.91 555.01c-.17-.72-1.99-2.76-2.69-.57s1.05 5.14 2.03 4.88c.98-.25 1.1-2.5.66-4.31z" style="fill:#fcd2b1"></path>
  <path d="M303.33 651.54s4.86 1.43 13.15 2.35c8.29.91 29.01-.33 29.14-1.31.13-.98-4.46-36.48-4.2-38.31.26-1.83.4-8.34.4-8.34.1 1.79 1.92 9.08 4.12 13.05.79 1.44 3.45 5.94 4.74 4.91 6.21-4.95 15.82-23.63 16.43-23.79-.51-.22-4.56-2.08-5.12-2.27-.5-.17-4.97 4.57-7.69 7.51-1.21 1.31-2.07 2.26-2.07 2.26-.78-1.76-3.64-12.87-4.52-16.71-2-8.67-1.69-9.03-1.69-9.03-6.07-1.84-15.27-5.57-15.27-5.57l-12.15-.49s-11.15 2.45-15.54 4.44c-.42.19-.42 9.95-1.56 12.51l3.64 7.68s2.1 15.22 2.54 21.98c.19 3.11-4.35 29.13-4.35 29.13z" style="fill:#ffbe55"></path>
  <path d="M300.98 605.42c.32 1.02 1.76 1.89 2.69 2.27.6.24 1.27.32 1.95.2l.48-.09 8.33-1.55s1.82-20.98-11.37-26.01c-.36.12-4.99 15.79-2.08 25.18z" style="fill:#ffbe55"></path>
  <path d="M317.31 546.04s-9.98 1.01-.18 16.16l.18-16.16zM370.61 577.51l1.05-1.82-8.32-2.87-1.05 1.81z" style="fill:#0b4870"></path>
  <path d="M775.04 706.49s3.55 8.85 4.26 10.31c.59 1.2 1.74 1.97 2.84 2.73.35.24.72.82 1.03 1.31.25.39.26.87.1 1.3-2.79 7.61-11.31 10.67-11.51 10.1-.36-1.03.9-3.1 2.69-4.14 1.8-1.04 2.84-3.04 2.91-5.11.06-1.65-.3-3.29-1.06-4.77l-3.47-6.59 2.21-5.14zM762.78 717.56l-2.13 9.45c-.65 2.89-.24 5.92 1.15 8.54.78 1.46.09 3.27-1.47 3.83-5.05 1.8-14.83 5.22-15.27 4.85-2.22-1.88 3.65-4.99 8-8.26 2.93-2.2 4.05-12.46 4.31-20.34l4.66 1.17c.37.12.65.4.75.76z" style="fill:#ffe3ca"></path>
  <path d="M753.84 739.05c-2.09.69-4.38.91-6.48 1.17-.24.03-.47.12-.66.27-2.01 1.56-3.03 3.13-1.85 4.13.47.4 11.97-3.67 16.45-5.28.94-.34 1.35-1.42.88-2.3l-.85-1.6c-2.35 1.49-4.84 2.74-7.49 3.61zM758.82 612.37c5.56.76 10.29 7.16 9.31 14.32-.56 4.11-4.39 18.82-8.59 30.45-1.61 4.46-.96 9.52 2.07 13.18.49.6.92 1.21 1.26 1.84 1.75 3.23 8.5 22.31 12.47 35.04-.32 1.67-1.31 3.78-2.56 4.51-6.97-10.81-18.31-30.54-20.17-33.98-1.04-1.91-2.17-4.11-2.99-6.19-4.51-5.97-3.64-39.35-2.73-45.99.96-7.14 6.37-13.94 11.93-13.18zM757.3 557.71s-4.81 3.03-4.23 7.11c0 0-2.57-1.82-3.15-8.09-.4-4.35 7.38.98 7.38.98z" style="fill:#0b4870"></path>
  <path d="M754.53 582.57c-.16 3.38-.71 6.98-2.71 10.31-.99 1.64-2.39 3.12-4.03 4.19a12.883 12.883 0 0 1-5.27 1.98c-3.61.51-6.97-.15-10.02-1.24-3.06-1.09-5.85-2.65-8.41-4.45a1.003 1.003 0 0 1 1-1.73l.01.01c2.71 1.25 5.52 2.2 8.34 2.73 2.8.51 5.66.6 8.05-.14 2.41-.71 4.05-2.22 4.96-4.28.95-2.07 1.17-4.7 1.07-7.38v-.04a3.5 3.5 0 0 1 3.38-3.62 3.5 3.5 0 0 1 3.62 3.38c.02.09.02.19.01.28z" style="fill:#ffe3ca"></path>
  <path d="M751.92 603.72c-1.93-5.8-5.8-18.09-5.47-22.11a4.948 4.948 0 0 1 4.94-4.54h16.75c2.78 0 5.05 2.2 5.13 4.98.14 4.85-2.09 15.9-3.35 21.68h-18z" style="fill:#ffbe55"></path>
  <path d="M757.48 717.68a.87.87 0 0 1-.4-.77c.35-12.32 1.1-28.03 1.37-31.04.03-.34.07-.68.12-1.02-2.64-14.57-3.04-45.88-3.3-51.36-.34-7.21 4-15.35 9.6-15.61 5.6-.27 11.68 5.53 13.48 12.14 1.19 4.36-3.4 27.56-8.38 44.37-1.05 3.54-1.21 7.26-.68 10.92.36 2.53.47 5.13.29 7.12-.27 2.96-3.59 15.02-6.7 25.35-.09.3-.33.54-.63.6-1.6.35-3.28.21-4.77-.7z" style="fill:#0b4870"></path>
  <path d="M771.84 611.08c-.87-2.43-1.13-5.04-.76-7.59.85-5.94 2.32-17.12 2.19-21.87a4.682 4.682 0 0 0-4.69-4.55h-2.48c-.95 2.19-2.95 3.89-6.07 3.89-3.11 0-5.12-1.7-6.06-3.89h-2.33c2.54 5.43 1.62 12.59-2.74 16.76.81 2.86 1.49 5.75 2 8.08.69 3.17.39 6.46-.86 9.45-2.14 5.14-3.84 13.38-3.33 16.64 17.62 4.99 29.81-3.85 29.81-3.85l-4.68-13.07z" style="fill:#ffbe55"></path>
  <path d="m757.3 578.22 7.6-.8-2.4-8.32-4.92.61z" style="fill:#fcd2b1"></path>
  <path d="m757.58 569.71 4.92-.61.75 2.6c-1.1 1.24-2.51 3.92-4.3 3.92-.57 0-1.08-.16-1.55-.46l.18-5.45z" style="fill:#fa968c"></path>
  <path d="M757.41 573.73c1.67 0 3.47-.84 5.96-3.01 1.43-1.25 2.49-3.42 2.49-4.89v-8.13h-12.51s-.94 4.32-.03 8.6c.68 3.22 2.78 7.43 4.09 7.43z" style="fill:#fcd2b1"></path>
  <path d="M763.74 564.3c0 1.59.76 2.87 1.7 2.87s1.97-2.08 1.97-3.66-1.03-2.08-1.97-2.08-1.7 1.28-1.7 2.87z" style="fill:#fcd2b1"></path>
  <path d="M767.4 558.69c0-2.54-2.06-4.59-4.6-4.59h-4.22c-1.21 0-2.38-.32-3.41-.9-1.49-.85-3.37-.56-4.39.82-1.1 1.49-1.57 3.49 1.21 5.33 1.39.92 3.41-.1 4.76.34.08 0 .16-.02.24-.02h3.72c1.29 0 2.28 1.06 2.32 2.35.02.82.69 1.47 1.52 1.47h.17l.6-1.91 2.08 2.8v-5.69z" style="fill:#0b4870"></path>
  <path d="M726.22 590.24s2.81 2.86 2.44 4.05c-.37 1.19-.35 1.08-2.18.73-1.83-.35-3.91-1.21-5.1-2.27-1.19-1.06.73-3.21 1.01-3.48.94-.89 4.5-1.13 5.49-.14.99.99-3.57 2.94-3.17 2.33.4-.61 2.04-1.48 2.25-2.31.23-.82-.74 1.09-.74 1.09z" style="fill:#fcd2b1"></path>
  <path d="M754.28 557.56c.42 1.86-.2 2.87 5.89 5.77 6.09 2.9 8.01 1.66 9.91 4.78 0 0-.83-5.17-4.19-6.94-3.36-1.77-9.19-2.93-11.06-7.04 0 0-.84 2.17-.55 3.43z" style="fill:#0b4870"></path>
  <path d="m687.55 541-3.71 18.69-3.71 18.69s21.23-6.64 45.33-1.86l1.64-8.25 1.64-8.29C704.65 555.2 687.55 541 687.55 541z" style="fill:#d3d3d3"></path>
  <path d="m722.1 596.97-2.13-1.01 9.64-20.44 5.4 2.55-8.17 17.33c-.91 1.92-2.82 2.48-4.74 1.57z" style="fill:#0b4870"></path>
  <path d="M742.12 579.97 720.87 576l3.46-17.42 21.08 4.8z" style="fill:#fcd2b1"></path>
  <path d="M755.45 557.91s-.23 6.25-5.7 9.26c0 0 2.41-4.73 2.24-7.82-.16-3.09 3.82-3.58 3.46-1.44zM785.3 724.3c.36-.42.37-1.03.01-1.45-.29-.34-1.06-1.29-1.64-2a.534.534 0 0 0-.9.12c-1.94 4.06-5.19 7.23-9.42 7.81-1.37.93-2.25 3.02-1.96 3.84.07.19 1.94.22 3.92-.91 8.76-5.01 9.99-7.41 9.99-7.41z" style="fill:#0b4870"></path>
  <path d="M773.49 579.23c.04.46.04.72.05 1.06 0 .32 0 .63-.01.94-.02.62-.07 1.22-.14 1.83a24.81 24.81 0 0 1-.68 3.6c-.68 2.36-1.69 4.69-3.2 6.74a18.4 18.4 0 0 1-5.64 5.02c-2.17 1.25-4.5 2.03-6.82 2.43-4.65.78-9.16.41-13.43-.49-4.28-.89-8.37-2.25-12.31-3.88a.996.996 0 0 1-.54-1.31c.19-.45.67-.7 1.14-.6h.01c4.09.86 8.19 1.59 12.25 1.87 2.03.15 4.04.14 6.01.06 1.95-.17 3.89-.39 5.67-.96 1.77-.55 3.43-1.25 4.84-2.24 1.41-.98 2.55-2.21 3.45-3.62.92-1.39 1.52-3.02 1.92-4.72.19-.86.34-1.73.42-2.61.04-.44.07-.88.07-1.32.01-.22.01-.43.01-.64l-.02-.52-.01-.25a3.497 3.497 0 0 1 3.39-3.6c1.85-.08 3.42 1.35 3.57 3.21z" style="fill:#ffe3ca"></path>
  <path d="M729.08 590.75s-3.83-.93-2.92.9c.91 1.82 1.9 1.27 1.9 1.27l1.02-2.17z" style="fill:#fcd2b1"></path>
  <path d="M366.68 471.25h60.01s5.11-11.63-9.87-13.68c-14.98-2.04 3.4-10.64-12.26-12-15.66-1.36-3.73 13.02-19.74 10.98-16-2.04-25.16 5.11-20.24 5.79 4.91.68-40.21 8.91 2.1 8.91zM451.11 419.99h60s5.11-11.63-9.87-13.68c-14.98-2.04 3.4-10.64-12.26-12s-3.73 13.02-19.74 10.98c-16-2.04-25.16 5.11-20.24 5.79 4.92.68-40.19 8.91 2.11 8.91zM654.44 520.07h60.01s5.11-11.63-9.87-13.68c-14.98-2.04 3.4-10.64-12.26-12-15.66-1.36-3.73 13.02-19.74 10.98-16-2.04-25.16 5.11-20.24 5.79 4.92.68-40.2 8.91 2.1 8.91zM575.6 419.99h60.01s5.11-11.63-9.87-13.68c-14.98-2.04 3.4-10.64-12.26-12-15.66-1.36-3.73 13.02-19.74 10.98-16.01-2.04-25.16 5.11-20.24 5.79 4.92.68-40.2 8.91 2.1 8.91z" style="opacity:.09;fill:#2a94f4"></path>
  <ellipse cx="717.32" cy="820.3" rx="83.6" ry="2.11" style="fill:#d3d3d3"></ellipse>
  <ellipse cx="653" cy="846.73" rx="83.6" ry="2.11" style="fill:#d3d3d3"></ellipse>
  <ellipse cx="492.91" cy="820.3" rx="83.6" ry="2.11" style="fill:#d3d3d3"></ellipse>
  <ellipse cx="312.82" cy="820.3" rx="83.6" ry="2.11" style="fill:#d3d3d3"></ellipse>
  <ellipse cx="428.59" cy="846.73" rx="83.6" ry="2.11" style="fill:#d3d3d3"></ellipse>
</svg>